<mxfile host="Electron" modified="2023-12-12T13:20:08.736Z" agent="Mozilla/5.0 (Windows NT 10.0; Win64; x64) AppleWebKit/537.36 (KHTML, like Gecko) draw.io/21.6.5 Chrome/114.0.5735.243 Electron/25.3.1 Safari/537.36" etag="C9vNgJM113Lnevm16PTl" version="21.6.5" type="device">
  <diagram name="Page-1" id="wjSl2jKwSkH-KG0pPpFf">
    <mxGraphModel dx="1404" dy="814" grid="1" gridSize="8" guides="0" tooltips="1" connect="1" arrows="0" fold="1" page="1" pageScale="1" pageWidth="2560" pageHeight="1440" background="#ffffff" math="0" shadow="0">
      <root>
        <mxCell id="0" />
        <mxCell id="1" parent="0" />
        <mxCell id="gHWjX6nv2yNhoL-KbP3H-1" value="ds_fifo" style="rounded=0;whiteSpace=wrap;html=1;verticalAlign=top;fontStyle=4" parent="1" vertex="1">
          <mxGeometry x="64" y="64" width="224" height="160" as="geometry" />
        </mxCell>
        <mxCell id="gHWjX6nv2yNhoL-KbP3H-5" style="edgeStyle=orthogonalEdgeStyle;rounded=0;orthogonalLoop=1;jettySize=auto;html=1;entryX=0;entryY=0.5;entryDx=0;entryDy=0;strokeWidth=2;startArrow=none;startFill=0;" parent="1" target="gHWjX6nv2yNhoL-KbP3H-4" edge="1">
          <mxGeometry relative="1" as="geometry">
            <mxPoint x="32" y="128" as="sourcePoint" />
          </mxGeometry>
        </mxCell>
        <mxCell id="mhyddePI75I2MfyKXa-t-4" style="edgeStyle=orthogonalEdgeStyle;rounded=0;orthogonalLoop=1;jettySize=auto;html=1;exitX=1;exitY=0.5;exitDx=0;exitDy=0;strokeWidth=2;entryX=0.5;entryY=1;entryDx=0;entryDy=0;" parent="1" source="gHWjX6nv2yNhoL-KbP3H-4" target="mhyddePI75I2MfyKXa-t-17" edge="1">
          <mxGeometry relative="1" as="geometry">
            <mxPoint x="112" y="127.99999999999989" as="targetPoint" />
          </mxGeometry>
        </mxCell>
        <mxCell id="gHWjX6nv2yNhoL-KbP3H-4" value="if_wr" style="text;html=1;strokeColor=none;fillColor=none;align=left;verticalAlign=middle;whiteSpace=wrap;rounded=0;" parent="1" vertex="1">
          <mxGeometry x="64" y="112" width="32" height="32" as="geometry" />
        </mxCell>
        <mxCell id="gHWjX6nv2yNhoL-KbP3H-6" style="edgeStyle=orthogonalEdgeStyle;rounded=0;orthogonalLoop=1;jettySize=auto;html=1;exitX=0;exitY=0.5;exitDx=0;exitDy=0;" parent="1" source="gHWjX6nv2yNhoL-KbP3H-7" edge="1">
          <mxGeometry relative="1" as="geometry">
            <mxPoint x="32" y="192" as="targetPoint" />
          </mxGeometry>
        </mxCell>
        <mxCell id="gHWjX6nv2yNhoL-KbP3H-7" value="if_wr_lvl" style="text;html=1;strokeColor=none;fillColor=none;align=left;verticalAlign=middle;whiteSpace=wrap;rounded=0;" parent="1" vertex="1">
          <mxGeometry x="64" y="176" width="48" height="32" as="geometry" />
        </mxCell>
        <mxCell id="gHWjX6nv2yNhoL-KbP3H-8" style="edgeStyle=orthogonalEdgeStyle;rounded=0;orthogonalLoop=1;jettySize=auto;html=1;exitX=1;exitY=0.5;exitDx=0;exitDy=0;strokeWidth=2;startArrow=none;startFill=0;" parent="1" source="gHWjX6nv2yNhoL-KbP3H-9" edge="1">
          <mxGeometry relative="1" as="geometry">
            <mxPoint x="304" y="127.84848484848487" as="sourcePoint" />
            <mxPoint x="320" y="128" as="targetPoint" />
          </mxGeometry>
        </mxCell>
        <mxCell id="gHWjX6nv2yNhoL-KbP3H-9" value="if_rd" style="text;html=1;strokeColor=none;fillColor=none;align=right;verticalAlign=middle;whiteSpace=wrap;rounded=0;" parent="1" vertex="1">
          <mxGeometry x="256" y="112" width="32" height="32" as="geometry" />
        </mxCell>
        <mxCell id="gHWjX6nv2yNhoL-KbP3H-10" style="edgeStyle=orthogonalEdgeStyle;rounded=0;orthogonalLoop=1;jettySize=auto;html=1;exitX=1;exitY=0.5;exitDx=0;exitDy=0;" parent="1" source="gHWjX6nv2yNhoL-KbP3H-11" edge="1">
          <mxGeometry relative="1" as="geometry">
            <mxPoint x="320" y="192" as="targetPoint" />
          </mxGeometry>
        </mxCell>
        <mxCell id="gHWjX6nv2yNhoL-KbP3H-11" value="if_rd_lvl" style="text;html=1;strokeColor=none;fillColor=none;align=right;verticalAlign=middle;whiteSpace=wrap;rounded=0;" parent="1" vertex="1">
          <mxGeometry x="240" y="176" width="48" height="32" as="geometry" />
        </mxCell>
        <mxCell id="mhyddePI75I2MfyKXa-t-10" style="edgeStyle=orthogonalEdgeStyle;rounded=0;orthogonalLoop=1;jettySize=auto;html=1;exitX=1;exitY=0.5;exitDx=0;exitDy=0;entryX=0.75;entryY=1;entryDx=0;entryDy=0;strokeWidth=2;" parent="1" source="mhyddePI75I2MfyKXa-t-1" target="mhyddePI75I2MfyKXa-t-12" edge="1">
          <mxGeometry relative="1" as="geometry">
            <mxPoint x="200.0000000000001" y="136.00000000000006" as="targetPoint" />
          </mxGeometry>
        </mxCell>
        <mxCell id="mhyddePI75I2MfyKXa-t-1" value="FF" style="rounded=0;whiteSpace=wrap;html=1;fontSize=10;" parent="1" vertex="1">
          <mxGeometry x="152" y="128" width="16" height="32" as="geometry" />
        </mxCell>
        <mxCell id="mhyddePI75I2MfyKXa-t-5" style="edgeStyle=orthogonalEdgeStyle;rounded=0;orthogonalLoop=1;jettySize=auto;html=1;exitX=1;exitY=0.5;exitDx=0;exitDy=0;entryX=0;entryY=0.5;entryDx=0;entryDy=0;strokeWidth=2;" parent="1" source="mhyddePI75I2MfyKXa-t-13" target="gHWjX6nv2yNhoL-KbP3H-9" edge="1">
          <mxGeometry relative="1" as="geometry">
            <mxPoint x="352" y="128" as="sourcePoint" />
          </mxGeometry>
        </mxCell>
        <mxCell id="mhyddePI75I2MfyKXa-t-7" style="edgeStyle=orthogonalEdgeStyle;rounded=0;orthogonalLoop=1;jettySize=auto;html=1;exitX=0.75;exitY=0;exitDx=0;exitDy=0;entryX=0;entryY=0.5;entryDx=0;entryDy=0;strokeWidth=2;" parent="1" source="mhyddePI75I2MfyKXa-t-17" target="mhyddePI75I2MfyKXa-t-1" edge="1">
          <mxGeometry relative="1" as="geometry">
            <mxPoint x="128" y="144" as="sourcePoint" />
            <Array as="points" />
          </mxGeometry>
        </mxCell>
        <mxCell id="mhyddePI75I2MfyKXa-t-8" style="edgeStyle=orthogonalEdgeStyle;rounded=0;orthogonalLoop=1;jettySize=auto;html=1;exitX=0.25;exitY=0;exitDx=0;exitDy=0;entryX=0.25;entryY=1;entryDx=0;entryDy=0;strokeWidth=2;" parent="1" source="mhyddePI75I2MfyKXa-t-17" target="mhyddePI75I2MfyKXa-t-12" edge="1">
          <mxGeometry relative="1" as="geometry">
            <mxPoint x="200" y="120.00000000000011" as="targetPoint" />
            <mxPoint x="128" y="112" as="sourcePoint" />
          </mxGeometry>
        </mxCell>
        <mxCell id="mhyddePI75I2MfyKXa-t-14" style="edgeStyle=orthogonalEdgeStyle;rounded=0;orthogonalLoop=1;jettySize=auto;html=1;exitX=0.5;exitY=0;exitDx=0;exitDy=0;entryX=0;entryY=0.5;entryDx=0;entryDy=0;strokeWidth=2;" parent="1" source="mhyddePI75I2MfyKXa-t-12" target="mhyddePI75I2MfyKXa-t-13" edge="1">
          <mxGeometry relative="1" as="geometry" />
        </mxCell>
        <mxCell id="mhyddePI75I2MfyKXa-t-12" value="MUX" style="shape=trapezoid;perimeter=trapezoidPerimeter;whiteSpace=wrap;html=1;fixedSize=1;rotation=90;size=12;fontSize=8;" parent="1" vertex="1">
          <mxGeometry x="168" y="120" width="64" height="16" as="geometry" />
        </mxCell>
        <mxCell id="mhyddePI75I2MfyKXa-t-13" value="FF" style="rounded=0;whiteSpace=wrap;html=1;fontSize=10;" parent="1" vertex="1">
          <mxGeometry x="224" y="112" width="16" height="32" as="geometry" />
        </mxCell>
        <mxCell id="mhyddePI75I2MfyKXa-t-17" value="DEMUX" style="shape=trapezoid;perimeter=trapezoidPerimeter;whiteSpace=wrap;html=1;fixedSize=1;rotation=90;size=12;flipH=1;flipV=1;fontSize=8;" parent="1" vertex="1">
          <mxGeometry x="88" y="120" width="64" height="16" as="geometry" />
        </mxCell>
      </root>
    </mxGraphModel>
  </diagram>
</mxfile>
